<?xml version="1.0" encoding="UTF-8" standalone="no"?>
<!-- Created with Inkscape (http://www.inkscape.org/) -->

<svg
   xmlns:dc="http://purl.org/dc/elements/1.1/"
   xmlns:cc="http://creativecommons.org/ns#"
   xmlns:rdf="http://www.w3.org/1999/02/22-rdf-syntax-ns#"
   xmlns:svg="http://www.w3.org/2000/svg"
   xmlns="http://www.w3.org/2000/svg"
   xmlns:sodipodi="http://sodipodi.sourceforge.net/DTD/sodipodi-0.dtd"
   xmlns:inkscape="http://www.inkscape.org/namespaces/inkscape"
   width="800"
   height="600"
   viewBox="0 0 211.66666 158.75"
   version="1.1"
   id="svg8"
   inkscape:version="0.92.1 r15371"
   sodipodi:docname="welcome.svg">
  <defs
     id="defs2" />
  <sodipodi:namedview
     id="base"
     pagecolor="#ffffff"
     bordercolor="#666666"
     borderopacity="1.0"
     inkscape:pageopacity="0.0"
     inkscape:pageshadow="2"
     inkscape:zoom="0.7"
     inkscape:cx="158.00384"
     inkscape:cy="347.91464"
     inkscape:document-units="mm"
     inkscape:current-layer="layer1"
     showgrid="false"
     units="px"
     inkscape:window-width="1600"
     inkscape:window-height="881"
     inkscape:window-x="0"
     inkscape:window-y="0"
     inkscape:window-maximized="1" />
  <metadata
     id="metadata5">
    <rdf:RDF>
      <cc:Work
         rdf:about="">
        <dc:format>image/svg+xml</dc:format>
        <dc:type
           rdf:resource="http://purl.org/dc/dcmitype/StillImage" />
        <dc:title></dc:title>
      </cc:Work>
    </rdf:RDF>
  </metadata>
  <g
     inkscape:label="Layer 1"
     inkscape:groupmode="layer"
     id="layer1"
     transform="translate(0,-138.24998)">
    <path
       style="fill:#800000;fill-opacity:0.95959598;stroke:#000000;stroke-width:0.26458332;stroke-opacity:1"
       id="path4487"
       d="m 15.906062,158.28253 c 0.603727,2.05837 1.446028,4.03252 2.169277,6.04944 0.675622,1.9483 1.544156,3.82073 2.275731,5.74745 0.525693,1.48958 1.052018,2.97898 1.552872,4.47727 0.390686,1.24025 0.915829,2.42179 1.452211,3.60309 0.535944,1.32065 1.149879,2.60712 1.720071,3.91254 0.638812,1.29996 1.01216,2.69725 1.547008,4.03996 0.271007,0.64049 0.398148,1.34756 0.731732,1.9629 0.05926,0.10932 0.116213,0.24394 0.230264,0.29349 0.09154,0.0398 0.377798,-0.11747 0.291896,-0.0667 -0.304345,0.18002 -0.6374,0.30636 -0.956101,0.45954 1.136976,-1.51725 1.498373,-3.54846 2.04361,-5.3396 0.527312,-1.40925 0.871707,-2.90676 1.562076,-4.25226 0.178025,-0.34696 0.388274,-0.67643 0.582412,-1.01464 1.406114,-2.12583 2.589873,-4.38589 3.90272,-6.56613 0.684186,-0.81666 0.741865,-1.02952 2.159378,-1.42493 0.587328,-0.16384 1.792127,2.30158 1.974737,2.64659 0.9437,1.85406 1.480333,3.87076 2.124382,5.83892 0.651637,1.53064 1.226256,3.09735 1.932347,4.60379 0.657405,1.26043 1.327377,2.60717 2.432293,3.53629 0.106723,0.0106 0.40585,-0.0328 0.32017,0.0317 -0.295294,0.22233 -0.631,0.50631 -0.999686,0.47987 -0.199072,-0.0143 0.20156,-0.34627 0.275074,-0.53183 0.102838,-0.25956 0.180586,-0.52886 0.252098,-0.79875 0.207925,-0.78469 0.254114,-1.21075 0.383921,-2.022 0.263554,-1.93725 0.32145,-3.89394 0.34962,-5.84635 -0.03219,-1.53825 -0.0011,-2.96285 0.217091,-4.48904 0.191473,-1.40363 0.424423,-2.79989 0.650806,-4.19803 0.164925,-1.49494 0.83857,-2.82538 1.443146,-4.17677 0.299974,-0.66414 0.528693,-1.35599 0.760902,-2.04554 0,0 1.33174,-0.62536 1.33174,-0.62536 v 0 c -0.229893,0.69483 -0.457715,1.39138 -0.758306,2.06 -0.594707,1.34183 -1.290211,2.65418 -1.450435,4.13831 -0.229928,1.39946 -0.468014,2.79686 -0.664634,4.20164 -0.05764,0.40124 -0.18869,1.24854 -0.212701,1.66352 -0.05396,0.93253 0.05004,1.87392 -0.0086,2.80712 -0.03856,1.96053 -0.101023,3.92501 -0.355082,5.8715 -0.207936,1.37267 -0.45181,4.93134 -2.793013,4.26277 -1.08808,-0.98078 -1.794269,-2.30447 -2.451671,-3.5959 -0.712018,-1.51073 -1.277046,-3.08818 -1.934295,-4.6234 -0.640212,-1.9612 -1.158914,-3.97629 -2.10144,-5.82255 -0.230198,-0.42541 -0.723659,-1.37929 -1.031496,-1.80275 -0.127895,-0.17593 -0.268478,-0.34879 -0.441791,-0.48021 -0.120967,-0.0917 -0.491728,-0.0397 -0.420907,-0.17398 0.160142,-0.30364 0.496528,-0.53556 0.832437,-0.60632 0.235091,-0.0495 -0.323339,0.35543 -0.48501,0.53314 -1.344917,2.16156 -2.496704,4.44465 -3.911849,6.56611 -0.192947,0.33213 -0.40205,0.65538 -0.578839,0.99638 -0.694492,1.33958 -1.035241,2.83697 -1.57412,4.23838 -0.564843,1.82472 -0.92451,3.78814 -1.974398,5.40983 -0.544353,0.32372 -1.057404,0.70708 -1.633056,0.97116 -0.659417,0.3025 -1.156385,-1.98062 -1.331766,-2.35313 -0.531925,-1.34214 -0.91562,-2.73375 -1.542674,-4.03677 -0.56916,-1.30484 -1.190871,-2.58674 -1.726997,-3.9064 -0.535299,-1.18771 -1.067696,-2.37204 -1.452517,-3.62031 -0.497672,-1.49758 -1.023571,-2.98551 -1.546817,-4.47421 -0.720932,-1.93263 -1.577499,-3.8117 -2.25932,-5.75937 -0.717089,-2.01585 -1.554958,-3.98684 -2.207217,-6.02576 0,0 1.302755,-0.72378 1.302755,-0.72378 z"
       inkscape:connector-curvature="0" />
    <path
       style="fill:#800000;fill-opacity:0.95959598;stroke:#000000;stroke-width:0.26458332;stroke-opacity:1"
       id="path4489"
       d="m 56.483408,181.65608 c 1.067681,0.13246 2.107033,0.42427 3.169748,0.59633 1.030965,0.2022 1.999136,-0.0701 2.961629,-0.40887 -0.266901,0.21068 1.185757,-0.60138 0.893993,-0.44205 -0.281924,0.15396 -0.545192,0.34815 -0.845238,0.46286 -0.158282,0.0605 0.280048,-0.19144 0.412316,-0.29736 0.381696,-0.30566 0.327459,-0.279 0.600094,-0.64733 0.343405,-0.7526 -0.147744,-1.04643 -0.756034,-1.33687 -0.772043,-0.29434 -1.565778,-0.51614 -2.378702,-0.66389 -0.965028,-0.20804 -1.862836,-0.0549 -2.767486,0.29783 -0.387625,0.33958 -1.953228,0.76579 0.118271,-0.0881 0.114917,-0.0474 -0.199085,0.15126 -0.282445,0.24346 -0.215323,0.23816 -0.249973,0.38132 -0.377417,0.67114 -0.29118,0.7782 -0.22007,1.56075 -0.100857,2.36051 0.07844,0.84143 0.498044,1.58476 0.811792,2.35394 0.324964,0.92522 1.019141,1.42348 1.93171,1.66976 1.070948,0.30252 2.180955,0.41004 3.287447,0.47891 0.644115,0.0712 1.274871,0.0207 1.912501,-0.069 0,0 -1.191588,0.88988 -1.191588,0.88988 v 0 c -0.641657,0.0793 -1.279027,0.10914 -1.924674,0.0418 -1.114965,-0.0765 -2.231602,-0.19602 -3.31066,-0.50156 -0.938485,-0.28619 -1.658837,-0.82988 -2.000067,-1.78529 -0.317558,-0.78032 -0.756124,-1.52773 -0.833512,-2.38238 -0.124486,-0.82185 -0.211291,-1.62521 0.06554,-2.4324 0.106259,-0.27873 0.163073,-0.49154 0.349956,-0.73091 0.652836,-0.83616 1.808949,-1.13422 2.714773,-1.63561 0.926293,-0.32669 1.842342,-0.44853 2.815294,-0.23326 0.821132,0.15847 1.629156,0.38111 2.405859,0.69308 0.679632,0.33169 1.176893,0.73799 0.875006,1.56475 -0.801629,1.23565 -2.302722,1.8259 -3.596391,2.42977 -0.977284,0.33402 -1.969466,0.55846 -3.005966,0.34961 -1.056682,-0.18077 -2.094068,-0.48486 -3.163731,-0.57044 0,0 1.208844,-0.87828 1.208844,-0.87828 z"
       inkscape:connector-curvature="0" />
    <path
       style="fill:#800000;fill-opacity:0.95959598;stroke:#000000;stroke-width:0.26458332;stroke-opacity:1"
       id="path4491"
       d="m 72.485313,180.26515 c 1.196702,-0.83206 2.115367,-1.78352 2.940973,-2.97652 0.741164,-1.15251 1.335061,-2.37389 1.757865,-3.67582 0.361895,-1.07469 0.585153,-2.17909 1.025075,-3.22695 0.428813,-0.9421 0.810207,-1.89129 1.03292,-2.90334 0.167677,-0.90692 0.314878,-1.83883 -0.299394,-2.59881 -0.570683,-0.45458 -1.313513,-0.51504 -2.015099,-0.45501 0.424117,-0.46921 -1.91717,0.87798 -1.347898,0.51831 1.6594,-1.04845 0.461984,-0.16197 0.109479,0.22357 -0.636966,0.87374 -0.806717,1.91791 -0.907153,2.96668 -0.06907,1.07656 -0.05657,2.15639 -0.05141,3.23456 0.0098,1.23134 0.0054,2.46272 0.0075,3.69409 0.0024,1.24856 0.0049,2.4971 0.0029,3.74567 -0.0011,1.21997 1.74e-4,2.43994 0.0024,3.65991 -0.0051,0.90819 -0.04373,1.80491 0.146389,2.69618 0.288432,1.08268 0.76709,1.59857 1.805313,1.96453 0.980059,0.26985 1.92193,-0.32885 2.747181,-0.80366 -1.735108,1.16442 -0.274867,0.0108 0.02019,-0.27829 0,0 1.368216,-0.56685 1.368216,-0.56685 v 0 c -0.773803,0.79195 -1.427242,1.29886 -2.54187,1.77673 -0.870527,0.47477 -1.812626,1.03544 -2.826986,0.70294 -1.062717,-0.41163 -1.571556,-0.97831 -1.879433,-2.09269 -0.209431,-0.90072 -0.172919,-1.80502 -0.159232,-2.7262 0.0021,-1.22078 0.0036,-2.44157 0.0024,-3.66235 -0.0021,-1.24901 5.3e-4,-2.498 9.3e-5,-3.74701 -0.0011,-1.23008 -0.0095,-2.46012 -0.01426,-3.69019 -0.0037,-1.08207 -0.02146,-2.16536 0.04253,-3.24617 0.09671,-1.07081 0.257466,-2.13605 0.868428,-3.05129 0.95508,-1.13401 2.365778,-1.88278 3.803761,-2.2009 0.748316,-0.0309 1.515743,0.0542 2.097683,0.57275 0.627621,0.81112 0.532609,1.75302 0.352523,2.71878 -0.214061,1.02321 -0.579033,1.98319 -1.021842,2.92977 -0.455104,1.04114 -0.6742,2.14283 -1.035399,3.21651 -0.418571,1.31383 -1.003385,2.54913 -1.741752,3.71563 -0.802492,1.17532 -1.709465,2.2058 -2.911869,2.99369 0,0 -1.380308,0.57175 -1.380308,0.57175 z"
       inkscape:connector-curvature="0" />
    <path
       style="fill:#800000;fill-opacity:0.95959598;stroke:#000000;stroke-width:0.26458332;stroke-opacity:1"
       id="path4493"
       d="m 95.115733,178.64498 c -0.928348,-0.30792 -1.893681,-0.46711 -2.863365,-0.57049 -0.442585,-0.0339 -0.460738,-0.0717 -0.903248,0.0453 -0.158808,0.042 -0.597117,0.26179 -0.464307,0.16513 1.825413,-1.32859 0.377783,-0.0366 0.10292,0.21406 -0.635828,0.55579 -0.902319,1.31518 -1.164161,2.08916 -0.252211,0.77855 -0.293542,1.5962 -0.32466,2.40726 -0.01278,0.78033 -0.135014,1.58003 0.290889,2.27102 0.500483,0.47792 1.206679,0.61962 1.840708,0.84188 0.774478,0.27736 1.618785,0.17896 2.425994,0.14953 0.867947,-0.009 1.717739,-0.24348 2.51605,-0.57068 0,0 -1.169948,0.91854 -1.169948,0.91854 v 0 c -0.817361,0.30461 -1.666774,0.53486 -2.54608,0.53046 -0.823447,0.0281 -1.673974,0.10867 -2.460056,-0.19234 -0.667467,-0.2256 -1.399318,-0.39568 -1.898248,-0.92765 -0.437036,-0.72513 -0.355338,-1.53104 -0.326874,-2.35043 0.02849,-0.82204 0.05925,-1.6515 0.303421,-2.44398 0.257321,-0.78858 0.51062,-1.58006 1.139392,-2.16093 1.062447,-0.9755 2.322602,-2.05671 3.849827,-1.84624 0.97849,0.11415 1.949762,0.2882 2.889631,0.59046 0,0 -1.237885,0.8399 -1.237885,0.8399 z"
       inkscape:connector-curvature="0" />
    <path
       style="fill:#800000;fill-opacity:0.95959598;stroke:#000000;stroke-width:0.26458332;stroke-opacity:1"
       id="path4495"
       d="m 110.64841,178.20849 c -0.80539,-0.45022 -1.68382,-0.75523 -2.6065,-0.79985 -0.96656,0.0102 -1.92381,0.28993 -2.80553,0.67317 0.30975,-0.17065 0.60219,-0.37741 0.92924,-0.51195 0.11189,-0.046 -0.18966,0.15186 -0.27118,0.24126 -0.32216,0.3533 -0.41431,0.80082 -0.49076,1.25537 -0.12758,0.77429 0.23119,1.49038 0.43628,2.21949 0.20263,0.7442 0.33555,1.52314 0.68281,2.2163 0.41803,0.72308 1.16606,1.02774 1.92428,1.27555 0.77531,0.18767 1.59134,0.33166 2.38842,0.23054 0.36718,-0.0411 0.69592,-0.16942 1.01598,-0.34775 0.12691,-0.0707 0.50648,-0.28399 0.37521,-0.22175 -0.93798,0.44471 -1.20457,0.75675 -0.61408,0.18703 0.61684,-0.73038 0.66806,-1.69434 0.72761,-2.60675 0.0704,-1.04556 0.0906,-2.08315 -0.50894,-2.98042 -0.30837,-0.43032 -0.77845,-0.63832 -1.21868,-0.89848 0,0 1.25194,-0.81122 1.25194,-0.81122 v 0 c 0.4586,0.27096 0.93439,0.509 1.25141,0.95783 0.60642,0.93199 0.62383,1.98351 0.54879,3.06742 -0.0516,0.93399 -0.0938,1.92475 -0.67753,2.7013 -0.76671,0.8126 -2.17014,1.64686 -3.3506,1.84162 -0.81427,0.0549 -1.6357,-0.0671 -2.42038,-0.28481 -0.79169,-0.27436 -1.55539,-0.61205 -1.98916,-1.37229 -0.35098,-0.70237 -0.49618,-1.48637 -0.69567,-2.24184 -0.20723,-0.74801 -0.58015,-1.48142 -0.46724,-2.275 0.22374,-1.57017 0.81173,-1.75973 2.33908,-2.56155 0.90474,-0.35928 1.86339,-0.64367 2.84576,-0.61767 0.94005,0.0809 1.83151,0.39306 2.65644,0.85115 0,0 -1.257,0.8133 -1.257,0.8133 z"
       inkscape:connector-curvature="0" />
    <path
       style="fill:#800000;fill-opacity:0.95959598;stroke:#000000;stroke-width:0.26458332;stroke-opacity:1"
       id="path4499"
       d="m 120.86323,177.869 c -0.008,1.01695 -0.007,2.03396 -0.006,3.05094 0.001,0.88237 0.003,1.76475 0.003,2.64713 0.006,0.65408 0.01,1.33472 -0.20626,1.96144 -0.46834,0.17265 -0.91372,0.42982 -1.40503,0.51794 -0.0867,0.0156 -0.0132,-0.17617 -0.01,-0.26422 0.0234,-0.55043 0.11865,-1.11556 0.22039,-1.65541 0.16643,-0.83767 0.34484,-1.67257 0.76774,-2.42154 0.54521,-0.68292 1.28798,-0.94103 2.08936,-1.3673 0.20825,-0.11078 0.84108,-0.42745 0.63232,-0.31766 -0.32778,0.17238 -0.65007,0.35499 -0.9751,0.53248 0.70726,-0.70588 1.38803,-1.09673 2.35205,-1.54958 0.0987,-0.0463 0.66361,-0.0618 0.75434,-0.0661 0.91837,0.0426 1.33392,0.70091 1.61325,1.49206 0.22088,1.14962 0.45293,2.29723 0.66181,3.44932 0.17362,0.93117 0.2855,1.86004 0.13693,2.79971 -1.29078,2.51726 -1.92056,0.26915 -2.09192,-0.59121 -0.16634,-0.98991 -0.18264,-1.99588 -0.19861,-2.99702 -0.0719,-0.8879 0.0305,-1.6674 0.52955,-2.41202 0.82042,-0.99758 2.02764,-1.68383 3.28997,-1.94807 0.76874,-0.1381 1.53027,-0.1235 2.29553,0.007 0.83519,0.18097 1.2681,0.72248 1.49148,1.50912 0.23844,0.68895 0.42189,1.37838 0.3699,2.10975 -0.0712,0.64862 -0.19999,1.29682 -0.14954,1.95054 0.0909,0.41599 0.26462,0.75659 0.55671,1.06103 0,0 -1.27729,0.77676 -1.27729,0.77676 v 0 c -0.30577,-0.3353 -0.49878,-0.70207 -0.60478,-1.14769 -0.0654,-0.66024 0.0572,-1.31824 0.13746,-1.97342 0.0715,-0.71717 -0.10289,-1.38843 -0.34136,-2.06459 -0.20333,-0.74442 -0.61068,-1.21973 -1.40236,-1.36512 -0.75403,-0.11737 -1.51011,-0.1101 -2.26168,0.0391 -0.59121,0.14593 -1.53544,0.69853 0.19362,-0.34379 0.11483,-0.0692 -0.23242,0.13487 -0.34024,0.21458 -0.2916,0.21559 -0.35147,0.3113 -0.59102,0.58089 -0.55874,0.75092 -0.63349,1.40541 -0.57341,2.32933 0.0119,0.99308 0.0258,1.99078 0.18549,2.97345 0.0609,0.30964 0.10118,0.58517 0.21052,0.88156 0.0358,0.0971 0.0786,0.19307 0.13636,0.27892 0.0354,0.0526 0.18659,0.0882 0.13893,0.13004 -0.3476,0.30527 -0.76582,0.51962 -1.15803,0.76497 -0.0437,0.0273 0.073,-0.0727 0.10947,-0.10903 0.18742,-0.92325 0.07,-1.84118 -0.0948,-2.76162 -0.20562,-1.14382 -0.44436,-2.28121 -0.66257,-3.42252 -0.2566,-0.7482 -0.63833,-1.33508 -1.50915,-1.32872 -0.71335,0.06 -1.45525,0.49036 0.26502,-0.51256 0.39448,-0.22998 -1.10958,0.74814 -0.78394,0.69778 -0.5245,0.31735 -1.04623,0.63932 -1.57351,0.95204 -0.10033,0.0595 -0.20387,0.11371 -0.30894,0.16438 -0.90669,0.43721 0.28281,-0.23781 0.63939,-0.45235 0.0963,-0.0579 -0.19606,0.11202 -0.28316,0.18306 -0.0901,0.0735 -0.16353,0.16532 -0.24529,0.24798 -0.45753,0.71959 -0.62225,1.55117 -0.79295,2.37682 -0.11187,0.53568 -0.1697,1.08042 -0.22181,1.62543 -0.007,0.0699 0.0395,0.16599 -0.0151,0.21022 -0.39527,0.32035 -0.85107,0.55778 -1.27661,0.83668 0.34823,-0.52363 0.20489,-1.31649 0.2491,-1.90696 5.3e-4,-0.88349 0.002,-1.76698 0.003,-2.65048 0.001,-1.01479 0.002,-2.02963 -0.006,-3.04439 0,0 1.3336,-0.67951 1.3336,-0.67951 z"
       inkscape:connector-curvature="0" />
    <path
       style="fill:#800000;fill-opacity:0.95959598;stroke:#000000;stroke-width:0.26458332;stroke-opacity:1"
       id="path4501"
       d="m 140.01615,182.03405 c 1.15335,-0.0873 2.29024,-0.2976 3.37283,-0.70625 -0.30056,0.1801 1.36512,-0.69878 1.0193,-0.53315 -0.27308,0.13078 -0.51831,0.32263 -0.80422,0.42226 -0.16087,0.0561 0.27913,-0.19546 0.42155,-0.28892 0.63373,-0.41586 0.16622,-0.07 0.68953,-0.47451 0.42817,-0.40913 0.50732,-0.82173 0.12324,-1.27123 -0.51684,-0.26433 -1.00477,-0.59384 -1.5344,-0.83938 -0.61126,-0.2829 -1.14904,-0.22648 -1.74532,0.0253 -0.75385,0.43886 0.28558,-0.16891 0.7318,-0.39594 0.10828,-0.0551 -0.20432,0.13153 -0.30584,0.19827 -0.32363,0.21276 -0.61481,0.4506 -0.91497,0.69468 -0.56827,0.44237 -0.76925,1.05325 -0.87718,1.73642 -0.078,0.73879 -0.12495,1.477 0.0766,2.19713 0.3303,0.83037 0.7191,1.65542 1.43047,2.219 0.70613,0.44121 1.50412,0.6049 2.31683,0.7144 0.79785,0.0627 1.6084,0.14523 2.40459,0.0382 0.44246,-0.16096 0.22909,-0.0605 0.63945,-0.30287 0,0 -1.16189,0.93547 -1.16189,0.93547 v 0 c -0.43453,0.21418 -0.21,0.12892 -0.67318,0.25683 -0.80643,0.0746 -1.62059,0.0118 -2.42471,-0.0703 -0.83187,-0.12403 -1.65281,-0.3054 -2.36393,-0.78017 -0.71748,-0.6009 -1.12581,-1.44158 -1.47565,-2.29722 -0.21846,-0.73839 -0.18251,-1.49067 -0.10799,-2.25244 0.0954,-0.70242 0.2658,-1.36222 0.83304,-1.83868 0.94928,-0.75812 1.93051,-1.46643 3.04925,-1.97767 0.62039,-0.23156 1.20591,-0.20833 1.81439,0.0763 0.54053,0.26279 1.06671,0.57565 1.57343,0.8914 0.40719,0.50077 0.42989,0.98818 -0.0248,1.48637 -1.12686,0.95539 -2.55949,1.67986 -3.87506,2.34123 -1.10079,0.38721 -2.25127,0.59819 -3.41601,0.67372 0,0 1.20885,-0.87828 1.20885,-0.87828 z"
       inkscape:connector-curvature="0" />
    <path
       style="fill:#800000;fill-opacity:0.95959598;stroke:#000000;stroke-width:0.26458332;stroke-opacity:1"
       id="path4503"
       d="m 9.737106,207.77491 c 0.2571898,1.74195 0.471446,3.48623 0.599963,5.24249 0.112184,1.86216 0.133472,3.72818 0.146237,5.59318 0.0093,1.281 0.0086,2.56201 0.0036,3.84302 -0.01531,2.18472 -0.01722,4.36949 -0.01455,6.55426 0.0091,1.73854 0.0063,3.4771 0.0088,5.21565 0.01237,1.98341 -0.05967,3.96552 0.07671,5.94511 0.195095,1.35971 0.345085,2.83622 1.198927,3.9739 0.398005,0.53031 0.660277,0.66855 1.175206,1.04748 1.060816,0.6146 2.253532,0.73199 3.451457,0.76762 0.657039,-0.0636 0.335852,-0.007 0.964025,-0.16794 0,0 -1.18081,0.90009 -1.18081,0.90009 v 0 c -0.644794,0.13662 -0.31641,0.0908 -0.985486,0.13493 -1.219355,-0.0492 -2.425509,-0.19905 -3.491099,-0.84923 -0.525812,-0.40198 -0.789858,-0.54833 -1.196903,-1.10133 -0.8579159,-1.16553 -1.019947,-2.65454 -1.2153267,-4.04162 -0.1502071,-1.97768 -0.094589,-3.96025 -0.1041961,-5.94281 0.00238,-1.74158 -3.969e-4,-3.48316 0.00902,-5.22472 0.00313,-2.18065 0.00143,-4.36129 -0.010067,-6.54191 -0.00185,-1.28214 0.00495,-2.56425 0.0052,-3.84639 -0.00752,-1.86336 -0.020138,-3.72789 -0.1340607,-5.58843 -0.1264756,-1.75491 -0.3225176,-3.50294 -0.6379374,-5.235 0,0 1.331355,-0.67835 1.331355,-0.67835 z"
       inkscape:connector-curvature="0" />
    <path
       style="fill:#800000;fill-opacity:0.95959598;stroke:#000000;stroke-width:0.26458332;stroke-opacity:1"
       id="path4505"
       d="m 8.0582671,233.81605 c 1.2649554,0.10315 2.3893979,-0.49519 3.5434069,-0.91487 0.94653,-0.39258 1.89218,-0.48087 2.898216,-0.39563 0,0 -1.211412,0.86567 -1.211412,0.86567 v 0 c -0.989937,-0.0721 -1.922297,0.058 -2.849492,0.4386 -1.1687079,0.42935 -2.3108649,0.98488 -3.5916086,0.88599 0,0 1.2108897,-0.87976 1.2108897,-0.87976 z"
       inkscape:connector-curvature="0" />
    <path
       style="fill:#800000;fill-opacity:0.95959598;stroke:#000000;stroke-width:0.26458332;stroke-opacity:1"
       id="path4509"
       d="m 26.33047,233.50655 c -0.867442,-0.17328 -1.696561,-0.0976 -2.462571,0.34473 0.323929,-0.16664 0.624767,-0.38912 0.971785,-0.49993 0.1267,-0.0405 -0.195642,0.18086 -0.283966,0.2803 -0.387272,0.43602 -0.641111,1.00304 -0.892351,1.5224 -0.432421,0.93442 -0.580557,1.9425 -0.662298,2.95796 -0.111452,1.01226 0.0032,2.01288 0.117823,3.01761 0.09852,1.15568 0.572987,2.10904 1.173186,3.07342 0.649105,0.87854 1.433648,1.47541 2.457133,1.83609 0.968475,0.17064 1.902383,0.0695 2.745822,-0.43858 -0.281178,0.14164 -0.533093,0.37247 -0.843529,0.4249 -0.06503,0.011 0.315516,-0.22281 0.811662,-0.72957 0.361932,-0.36968 0.623832,-0.76768 0.886825,-1.20963 0.478965,-0.96804 0.670595,-2.02966 0.665192,-3.10178 -0.06328,-1.06279 -0.14704,-2.12289 -0.354182,-3.16776 -0.199911,-0.86438 -0.263387,-1.74892 -0.305094,-2.63244 -0.03576,-1.13313 -0.431368,-1.6192 -1.353359,-2.18294 -0.851617,-0.39573 -1.784898,-0.55225 -2.717793,-0.50852 0,0 1.1986,-0.87635 1.1986,-0.87635 v 0 c 0.955829,-0.013 1.907077,0.14825 2.769545,0.57846 0.944142,0.59333 1.370592,1.14983 1.425297,2.30808 0.03774,0.87696 0.09817,1.7548 0.293402,2.61334 0.208444,1.05429 0.290412,2.12211 0.362325,3.19396 0.02373,1.09315 -0.169648,2.17394 -0.628652,3.1729 -0.794806,1.40478 -1.911488,2.29815 -3.36455,3.04967 -0.882587,0.45955 -1.847686,0.55687 -2.822336,0.33626 -1.038152,-0.39237 -1.846991,-1.02006 -2.506287,-1.92166 -0.60856,-0.98355 -1.1008,-1.9541 -1.204356,-3.13078 -0.117163,-1.0126 -0.247887,-2.01984 -0.134654,-3.04108 0.07874,-1.02989 0.215582,-2.05397 0.641065,-3.00729 0.685717,-1.49696 1.090824,-2.01724 2.714036,-2.85067 0.800399,-0.39835 1.651959,-0.43599 2.527362,-0.27062 0,0 -1.225082,0.85952 -1.225082,0.85952 z"
       inkscape:connector-curvature="0" />
    <path
       style="fill:#800000;fill-opacity:0.95959598;stroke:#000000;stroke-width:0.26458332;stroke-opacity:1"
       id="path4511"
       d="m 53.581217,208.57664 c -0.01889,1.57866 -0.01299,3.15749 -0.0095,4.73622 -0.06677,1.72171 0.04842,3.42462 0.26847,5.13096 0.315034,1.72869 0.591457,3.46035 0.757444,5.20991 0.100266,1.17781 0.114069,2.35978 0.118943,3.54098 0.199319,1.28574 0.455094,2.55913 0.609529,3.85244 0.09992,1.05164 0.177162,2.1117 0.10106,3.16665 -0.07472,1.09637 -0.343673,2.16278 -0.516207,3.24479 -0.167995,1.22735 -0.185243,2.46795 -0.201044,3.70454 -0.0054,0.67509 -0.007,1.35019 -0.0071,2.0253 0,0 -1.313503,0.66913 -1.313503,0.66913 v 0 c 0.0011,-0.67575 -7.93e-4,-1.35152 0.0072,-2.02724 0.01471,-1.2414 0.02172,-2.48642 0.18402,-3.71956 0.164868,-1.08023 0.443855,-2.14113 0.521354,-3.23428 0.08341,-1.04654 0.0066,-2.09883 -0.08472,-3.14317 -0.147037,-1.29957 -0.397934,-2.57832 -0.619128,-3.86611 -0.0042,-1.17844 -0.0149,-2.35796 -0.10532,-3.53358 -0.152538,-1.7508 -0.422084,-3.48393 -0.741955,-5.21183 -0.220128,-1.70905 -0.364628,-3.41578 -0.28911,-5.1414 0.0035,-1.5755 0.0095,-3.15111 -0.0095,-4.72653 0,0 1.329103,-0.67722 1.329103,-0.67722 z"
       inkscape:connector-curvature="0" />
    <path
       style="fill:#800000;fill-opacity:0.95959598;stroke:#000000;stroke-width:0.26458332;stroke-opacity:1"
       id="path4513"
       d="m 53.74188,211.47106 c 0.610645,0.96346 1.231813,1.89862 2.053294,2.69551 1.264367,1.2953 2.586728,2.53489 3.744735,3.92834 0.806686,1.03571 1.217703,2.29827 1.702028,3.50279 0.518067,1.11875 0.961151,2.26898 1.515128,3.37107 0.323988,0.48244 0.987459,1.97271 1.679684,1.97915 0.108256,10e-4 0.198003,-0.0876 0.297005,-0.13143 -0.323781,0.16106 -0.611606,0.44625 -0.971341,0.48319 -0.165402,0.017 0.199255,-0.26737 0.280789,-0.41227 0.438933,-0.78011 0.723397,-1.65487 1.025803,-2.49291 0.482862,-1.19885 0.78954,-2.45983 1.306417,-3.64444 0.54056,-0.98221 0.789003,-2.02933 0.912273,-3.13259 0.182607,-1.42922 0.387749,-2.85493 0.579199,-4.28301 0.236707,-1.00588 0.333693,-2.04149 0.54755,-3.05067 0.460682,-0.14071 0.900374,-0.42626 1.382046,-0.42211 0.144981,0.001 0.0081,0.29024 0.02513,0.43422 0.02342,0.19821 0.06053,0.3946 0.09595,0.59101 0.125265,0.69455 0.261776,1.38349 0.369928,2.08128 0.209674,1.33017 0.258228,2.67641 0.286173,4.02029 0.06687,1.46337 0.293357,2.90214 0.591105,4.33374 0.327605,1.36741 0.37396,2.77739 0.662229,4.15065 0.337566,1.21589 0.487206,2.46568 0.584131,3.72 0.05995,1.27002 0.05814,2.53289 0.211172,3.79669 0.257511,1.63224 0.512596,3.27151 0.85267,4.88931 0.377952,1.26732 1.093057,2.39022 1.581444,3.61462 0,0 -1.29308,0.72126 -1.29308,0.72126 v 0 c -0.481941,-1.23686 -1.200142,-2.36628 -1.588516,-3.63943 -0.335055,-1.62373 -0.575839,-3.27003 -0.848275,-4.90484 -0.166958,-1.26307 -0.185968,-2.52461 -0.228206,-3.79641 -0.0889,-1.24945 -0.236572,-2.49349 -0.57063,-3.70467 -0.293232,-1.37398 -0.336785,-2.78375 -0.656804,-4.15418 -0.298754,-1.43941 -0.541255,-2.88287 -0.609476,-4.35471 -0.02732,-1.33828 -0.07223,-2.6789 -0.274081,-4.00449 -0.138608,-0.89506 -0.36534,-1.78037 -0.487567,-2.67656 -0.01876,-0.13749 -0.121438,-0.31471 -0.02603,-0.41547 0.365088,-0.38559 0.86414,-0.61737 1.29621,-0.92606 -0.326501,0.97165 -0.273701,2.06539 -0.584248,3.04666 -0.193267,1.42555 -0.391213,2.8495 -0.575204,4.27614 -0.10904,1.11709 -0.335894,2.18186 -0.889667,3.17347 -0.53644,1.17569 -0.834495,2.44021 -1.318519,3.63783 -0.234579,0.65721 -0.468849,1.30394 -0.749742,1.94287 -0.03251,0.0739 -0.393554,0.9415 -0.507672,1.03019 -0.492884,0.38305 -1.063487,0.65394 -1.595231,0.98091 -0.117858,0.0155 -0.236823,0.0687 -0.353573,0.0464 -0.778473,-0.14897 -1.329195,-1.49044 -1.72189,-2.07283 -0.556053,-1.10573 -1.004723,-2.25804 -1.521854,-3.38177 -0.473871,-1.19187 -0.888381,-2.43608 -1.669309,-3.46906 -1.146847,-1.39833 -2.467475,-2.634 -3.748559,-3.90738 -0.825526,-0.80784 -1.445064,-1.75667 -2.081355,-2.71515 0,0 1.28873,-0.75515 1.28873,-0.75515 z"
       inkscape:connector-curvature="0" />
    <path
       style="fill:#800000;fill-opacity:0.95959598;stroke:#000000;stroke-width:0.26458332;stroke-opacity:1"
       id="path4515"
       d="m 86.079959,229.61325 c -0.827215,-0.55237 -1.714045,-1.03411 -2.660854,-1.34238 -1.140058,-0.38678 -2.298142,-0.71658 -3.483525,-0.92879 -0.666176,-0.0666 -1.410661,-0.27629 -2.06841,-0.0257 -0.168222,0.0641 -0.645213,0.31104 -0.471765,0.26286 0.274672,-0.0763 0.520592,-0.23249 0.780889,-0.34873 -1.014934,1.05889 -1.678636,2.36674 -2.037546,3.77731 -0.281252,1.74048 -0.326012,3.51832 -0.245605,5.27713 0.07469,0.85993 0.10776,1.79977 0.556975,2.56855 0.19065,0.32628 0.447436,0.55768 0.706998,0.82733 0.643123,0.56374 1.377545,1.29337 2.263288,1.45627 0.149011,0.0274 0.303004,0.003 0.454507,0.005 0.13861,-0.0372 0.282022,-0.0597 0.415829,-0.11164 0.136565,-0.053 0.518896,-0.27197 0.390689,-0.20114 -0.294161,0.16253 -0.570976,0.36657 -0.888648,0.47627 -0.152484,0.0526 0.256186,-0.19633 0.379423,-0.30043 0.277749,-0.23461 0.484225,-0.44229 0.746088,-0.6949 0.606068,-0.58671 1.074632,-1.23027 1.432328,-1.98868 0.345662,-0.81521 0.43335,-1.6959 0.489206,-2.56998 0.05164,-0.97383 0.177118,-1.94972 0.350859,-2.90963 0.311795,-1.03359 0.506637,-2.10421 1.011544,-3.06572 1.148289,-1.28113 1.899444,-1.56896 2.183755,-0.10428 0.105415,0.85521 0.08764,1.7205 0.08461,2.58061 0.02106,1.04695 -0.09842,2.10162 0.138571,3.12923 0.222485,0.8566 0.7532,1.58431 1.239443,2.30998 0.07748,0.12329 0.154958,0.24658 0.232439,0.36986 0,0 -1.285624,0.74844 -1.285624,0.74844 v 0 c -0.07634,-0.12227 -0.15268,-0.24455 -0.229023,-0.36683 -0.494009,-0.74222 -1.040109,-1.48124 -1.265158,-2.35681 -0.245134,-1.03895 -0.135832,-2.10121 -0.151201,-3.16101 -0.0031,-0.85017 0.01519,-1.70453 -0.0825,-2.55049 -0.03394,-0.18651 -0.054,-0.37071 -0.132742,-0.54569 -0.113056,-0.25123 -0.227933,-0.18197 -0.223668,-0.18517 2.221087,-1.66296 1.148083,-0.7401 0.846254,-0.47414 -0.543928,0.93311 -0.702813,2.00407 -1.032283,3.02261 -0.180604,0.95281 -0.302696,1.92519 -0.357637,2.89271 -0.05137,0.88835 -0.132366,1.78142 -0.459846,2.61828 -0.360979,0.77342 -0.794316,1.44428 -1.41845,2.04104 -1.012412,0.99445 -2.179327,2.02764 -3.620669,2.26465 -1.127482,-0.10045 -1.979962,-0.79438 -2.773817,-1.55814 -1.088605,-1.13352 -1.213435,-1.93419 -1.301311,-3.4963 -0.08143,-1.76944 -0.03889,-3.55552 0.218024,-5.31003 0.333912,-1.43744 1.013762,-2.75281 1.994197,-3.86342 2.006727,-1.29644 2.129321,-1.67125 4.341397,-1.28619 1.188701,0.22349 2.352008,0.55693 3.497463,0.94451 0.954265,0.32689 1.843924,0.81699 2.692519,1.36033 0,0 -1.257003,0.81331 -1.257003,0.81331 z"
       inkscape:connector-curvature="0" />
    <path
       style="fill:#800000;fill-opacity:0.95959598;stroke:#000000;stroke-width:0.26458332;stroke-opacity:1"
       id="path4517"
       d="m 92.05683,209.26283 c -0.691383,2.71101 -0.501012,5.54202 -0.270997,8.29819 0.312798,3.11991 0.930042,6.18505 1.668166,9.22726 0.323723,1.28575 0.287698,2.55702 0.03769,3.84504 -0.271478,1.10786 -0.443074,2.23248 -0.540012,3.36789 -0.06659,0.97092 -0.06758,1.94474 -0.06942,2.91747 0.0011,0.89847 -0.09753,1.80142 0.314275,2.62624 0.449463,0.57488 1.204105,0.6661 1.876133,0.81726 0.896025,0.18673 1.811497,0.22366 2.723373,0.24993 0.904081,0.0191 1.808421,0.0158 2.712642,0.0159 0,0 -1.198874,0.87107 -1.198874,0.87107 v 0 c -0.906145,5.3e-4 -1.812361,-5.3e-4 -2.718382,-0.0175 -0.918877,-0.0309 -1.840979,-0.0744 -2.742213,-0.27185 -0.719974,-0.16712 -1.489594,-0.28599 -1.947974,-0.92775 -0.419877,-0.84924 -0.355724,-1.76286 -0.342114,-2.68942 0.0013,-0.97655 0.0021,-1.95388 0.06465,-2.92889 0.09669,-1.141 0.261638,-2.27307 0.539009,-3.38552 0.254511,-1.26985 0.309306,-2.52495 0.01045,-3.79941 -0.704181,-3.06251 -1.309881,-6.14273 -1.624229,-9.2741 -0.244766,-2.75876 -0.448874,-5.57502 0.153797,-8.30592 0,0 1.354034,-0.6359 1.354034,-0.6359 z"
       inkscape:connector-curvature="0" />
    <path
       style="fill:#800000;fill-opacity:0.95959598;stroke:#000000;stroke-width:0.26458332;stroke-opacity:1"
       id="path4519"
       d="m 90.079099,227.76843 c 1.077769,0.008 2.155573,0.004 3.233359,0.005 1.122793,5e-5 2.245587,-5.3e-4 3.368381,-0.002 0,0 -1.200637,0.87231 -1.200637,0.87231 v 0 c -1.121227,-0.001 -2.242452,-0.002 -3.363679,-0.002 -1.082771,0.002 -2.165557,-0.002 -3.248314,0.005 0,0 1.21089,-0.87976 1.21089,-0.87976 z"
       inkscape:connector-curvature="0" />
    <path
       style="fill:#800000;fill-opacity:0.95959598;stroke:#000000;stroke-width:0.26458332;stroke-opacity:1"
       id="path4527"
       d="m 102.7595,209.65542 c 0.13885,1.11391 0.21415,2.23123 0.39132,3.34001 0.17803,0.99758 0.25725,2.00846 0.29681,3.01986 0.0639,0.90347 -0.0562,1.81964 0.11112,2.71145 0.26054,1.01834 0.58369,2.01621 0.80328,3.04496 0.19533,0.98781 0.22212,1.99705 0.2418,3.00051 -0.003,0.99139 -0.007,1.9753 0.10746,2.96077 0.1263,0.8917 0.2061,1.78804 0.24793,2.68737 0.031,0.84256 0.0268,1.68591 0.0276,2.5289 2e-4,0.80267 -5.3e-4,1.60533 -7.9e-4,2.408 -0.003,0.8613 -0.002,1.72262 -0.001,2.58393 0,0 -1.32655,0.6759 -1.32655,0.6759 v 0 c 5.3e-4,-0.8611 0.002,-1.72221 -1.7e-4,-2.58331 7.9e-4,-0.80302 0.002,-1.60606 0.003,-2.40909 1.6e-4,-0.8408 0.001,-1.68184 -0.0261,-2.5223 -0.0378,-0.89695 -0.11133,-1.79144 -0.23701,-2.68074 -0.11879,-0.9898 -0.12799,-1.9768 -0.11515,-2.97337 -0.0173,-0.99502 -0.0416,-1.99555 -0.22773,-2.97624 -0.21387,-1.03065 -0.53942,-2.02768 -0.80716,-3.04463 -0.18925,-0.89672 -0.0589,-1.821 -0.12061,-2.73302 -0.0388,-1.00647 -0.10877,-2.01293 -0.28507,-3.00606 -0.176,-1.10825 -0.25136,-2.22442 -0.4044,-3.33581 0,0 1.32143,-0.69709 1.32143,-0.69709 z"
       inkscape:connector-curvature="0" />
    <path
       style="fill:#800000;fill-opacity:0.95959598;stroke:#000000;stroke-width:0.26458332;stroke-opacity:1"
       id="path4529"
       d="m 103.65462,230.92262 c 0.19936,-1.28944 0.69452,-2.49381 1.43311,-3.56289 0.8962,-0.98556 2.16965,-1.82936 3.53514,-1.79939 0.90206,0.16626 1.39678,0.957 1.72866,1.74395 0.2352,0.86077 0.3313,1.75636 0.47883,2.63745 0.21748,0.78698 0.40172,1.57722 0.5008,2.38803 0.0768,0.75647 0.0801,1.51764 0.084,2.2772 0.10967,0.78142 0.39129,1.53564 0.61435,2.29338 0.30888,0.77536 0.8661,1.42241 1.36049,2.08644 0,0 -1.27509,0.75603 -1.27509,0.75603 v 0 c -0.50419,-0.67833 -1.07278,-1.33876 -1.39036,-2.1291 -0.23309,-0.76882 -0.50844,-1.53793 -0.6374,-2.32932 -0.003,-0.7545 -0.005,-1.51048 -0.0759,-2.26235 -0.0937,-0.80965 -0.27218,-1.59945 -0.495,-2.38333 -0.14311,-0.87084 -0.24643,-1.75291 -0.46331,-2.60672 -0.30704,-0.74227 -0.7672,-1.49153 -1.63526,-1.59444 -0.37918,0.0158 -0.37814,-0.008 -0.74858,0.10479 -0.12695,0.0386 -0.47776,0.22034 -0.37316,0.13868 1.81653,-1.4182 0.49313,-0.18788 0.14818,0.0901 -0.75719,1.03193 -1.24715,2.20478 -1.45598,3.47194 0,0 -1.33361,0.6795 -1.33361,0.6795 z"
       inkscape:connector-curvature="0" />
    <path
       style="fill:#800000;fill-opacity:0.95959598;stroke:#000000;stroke-width:0.26458332;stroke-opacity:1"
       id="path4533"
       d="m 119.7293,205.46126 c -0.0129,1.19055 -0.01,2.38121 -0.008,3.5718 0.002,1.0485 0.003,2.097 0.002,3.1455 -0.0251,1.31587 -0.19961,2.62407 -0.279,3.93851 -0.0986,1.33585 -0.0378,2.67855 -0.1432,4.01301 -0.21193,1.10058 -0.45799,2.19099 -0.59772,3.30423 -0.11298,1.08487 -0.11162,2.17708 -0.12213,3.26648 -0.0681,1.53506 0.19047,3.04669 0.44145,4.55329 0.19862,1.08357 0.27652,2.18171 0.3073,3.28116 0.0194,0.83676 0.0153,1.6738 0.0162,2.51072 0,0 -1.31338,0.66937 -1.31338,0.66937 v 0 c -7.9e-4,-0.83467 -0.003,-1.6694 -0.0202,-2.50393 -0.0339,-1.09393 -0.10039,-2.18739 -0.29195,-3.26694 -0.24533,-1.5146 -0.50812,-3.03313 -0.45314,-4.57503 -5.3e-4,-1.09308 -2.3e-4,-2.18859 0.10513,-3.27772 0.13781,-1.11302 0.37293,-2.2054 0.60623,-3.30144 0.11299,-1.33454 0.0562,-2.6782 0.154,-4.01458 0.0738,-1.3097 0.23584,-2.61386 0.26883,-3.92372 -10e-4,-1.04933 5.3e-4,-2.09866 0.002,-3.14798 10e-4,-1.18774 0.004,-2.37554 -0.008,-3.56322 0,0 1.3336,-0.67951 1.3336,-0.67951 z"
       inkscape:connector-curvature="0" />
    <path
       style="fill:#800000;fill-opacity:0.95959598;stroke:#000000;stroke-width:0.26458332;stroke-opacity:1"
       id="path4535"
       d="m 120.33069,205.95617 c 1.06751,0.31897 2.17083,0.47284 3.27742,0.57091 0.92167,0.0714 1.84641,0.0793 2.77031,0.0822 1.05138,-0.082 1.94024,0.30846 2.83903,0.79852 1.05239,0.59137 2.01363,1.28818 2.77171,2.23115 0.57525,0.77272 0.81275,1.67439 0.92758,2.61328 0.0686,0.77246 0.0563,1.54901 0.0517,2.32362 0.0656,0.86465 -0.10055,1.59553 -0.59061,2.30889 -0.86421,0.88055 -2.02359,1.36014 -3.09721,1.933 -1.14362,0.61022 0.0707,0.028 -1.19815,0.61278 -0.25334,-0.0781 -1.80223,1.01056 -1.9131,0.95636 -0.20978,-0.10258 0.64428,-0.56981 0.61345,-0.33833 -0.0328,0.24667 -0.41839,0.26971 -0.62314,0.41113 -0.19677,0.13592 -0.38744,0.28046 -0.58115,0.42069 -1.30322,0.96757 -2.6848,1.85893 -4.21819,2.4117 -0.48145,0.16463 -0.98146,0.24987 -1.48174,0.33076 0,0 1.18678,-0.89294 1.18678,-0.89294 v 0 c 0.49428,-0.087 0.98816,-0.1785 1.46179,-0.35093 0.41653,-0.16058 1.97504,-0.99006 0.18705,0.0754 -0.15766,0.094 0.31107,-0.19505 0.46261,-0.29858 0.34879,-0.23828 0.67868,-0.50353 1.03345,-0.73337 1.56266,-1.1501 3.25836,-2.1061 5.02396,-2.90876 1.25947,-0.60523 0.0525,-0.009 1.20179,-0.62003 0.17065,-0.0907 0.66585,-0.3849 0.51767,-0.26088 -0.22907,0.19173 -0.49578,0.33714 -0.76455,0.46751 -0.3105,0.15062 1.12548,-0.71521 0.82511,-0.62532 0.51732,-0.67526 0.69226,-1.37366 0.62551,-2.22318 0.005,-0.76937 0.0185,-1.54037 -0.0419,-2.3081 -0.10236,-0.91343 -0.31958,-1.79247 -0.87986,-2.54421 -0.75064,-0.92411 -1.69784,-1.60867 -2.73846,-2.18251 -0.89192,-0.47295 -1.77395,-0.81732 -2.80643,-0.7329 -0.9242,-0.006 -1.8492,-0.0191 -2.77062,-0.0979 -1.11761,-0.10709 -2.22956,-0.27461 -3.30977,-0.59005 0,0 1.23788,-0.83989 1.23788,-0.83989 z"
       inkscape:connector-curvature="0" />
    <path
       style="fill:#800000;fill-opacity:0.95959598;stroke:#000000;stroke-width:0.26458332;stroke-opacity:1"
       id="path4537"
       d="m 129.29826,226.64743 c 0.44375,1.0567 0.71235,2.16381 0.87487,3.29454 0.11665,0.91273 0.13556,1.83334 0.14349,2.75218 0.0332,0.71546 -0.20912,1.40648 0.39806,1.91578 0.91002,0.56103 2.02709,0.73882 3.06992,0.90411 1.17637,0.15561 2.36355,0.18634 3.54848,0.20029 0.39823,-0.0384 0.58896,-0.0324 0.9685,-0.16354 0.13731,-0.0474 0.51923,-0.25921 0.39549,-0.1831 -1.8903,1.16271 -0.59851,0.29637 -0.2239,0.0281 0.63231,-0.37929 1.14908,-0.83271 1.29119,-1.57737 -0.12974,-0.85342 -0.33581,-1.68976 -0.44478,-2.54841 -0.12019,-0.91466 0.0562,-1.83228 0.13938,-2.74321 0.0388,-0.46774 0.0593,-0.93668 0.0768,-1.4056 0.003,-0.0851 0.006,-0.17026 0.009,-0.2554 5.3e-4,-0.0221 -0.0201,-0.0587 5.3e-4,-0.0662 0.44293,-0.1615 0.89917,-0.28386 1.34875,-0.42579 0.004,0.82323 0.002,1.6465 -10e-4,2.46973 10e-4,1.31941 -0.0324,2.63825 0.0324,3.95636 0.0677,0.93216 0.14546,1.86366 0.23527,2.79395 0,0 -1.31504,0.68475 -1.31504,0.68475 v 0 c -0.0755,-0.93545 -0.15179,-1.87085 -0.22179,-2.80673 -0.0763,-1.31681 -0.0489,-2.63545 -0.0543,-3.95417 -7.9e-4,-0.82022 0.004,-1.64051 -0.009,-2.46067 0.44563,-0.30831 0.88347,-0.62823 1.33691,-0.92494 0.0174,-0.0114 -0.0136,0.0397 -0.0156,0.0603 -0.009,0.0859 -0.0114,0.17237 -0.0162,0.25861 -0.0262,0.47099 -0.0414,0.94259 -0.077,1.41306 -0.0796,0.90203 -0.25933,1.81016 -0.15505,2.71549 0.10787,0.87157 0.30941,1.71988 0.47141,2.58122 -0.0947,0.78226 -0.5736,1.30376 -1.2483,1.68701 -1.10897,0.81926 -2.29653,1.72168 -3.72412,1.73602 -1.18784,-0.0184 -2.37757,-0.0574 -3.55581,-0.22181 -1.06651,-0.17718 -2.21432,-0.36135 -3.13184,-0.96344 -0.6611,-0.61201 -0.43191,-1.2046 -0.45507,-2.0274 -0.005,-0.91403 -0.0175,-1.82993 -0.12671,-2.73866 -0.15396,-1.11798 -0.4092,-2.21703 -0.86658,-3.25419 0,0 1.30145,-0.73093 1.30145,-0.73093 z"
       inkscape:connector-curvature="0" />
    <path
       style="fill:#800000;fill-opacity:0.95959598;stroke:#000000;stroke-width:0.26458332;stroke-opacity:1"
       id="path4539"
       d="m 146.18763,225.87198 c -0.0133,1.23043 -0.01,2.46097 -0.01,3.69146 0.001,1.21693 0.003,2.43387 7.9e-4,3.6508 -10e-4,1.24935 -0.009,2.49877 0.007,3.74806 -0.0108,0.0635 0.0237,0.15891 -0.0325,0.19042 -0.45075,0.25296 -0.91965,0.49237 -1.4194,0.62436 -0.14444,0.0381 -0.21764,-1.55519 -0.22146,-1.63347 -0.0385,-1.15038 -0.0347,-2.30149 -0.0337,-3.45232 -0.0269,-1.094 -0.0531,-2.16018 0.31478,-3.20134 0.40869,-1.03791 1.14028,-1.87931 1.81285,-2.74976 0.52768,-0.60826 0.93865,-1.41099 1.662,-1.82173 0.55485,-0.31506 1.12839,-0.596 1.69258,-0.894 1.05807,-0.0933 1.96495,0.69544 2.70251,1.36906 0.69705,0.68893 0.93651,1.5487 1.04588,2.49018 0.0471,1.23209 0.46866,2.42316 0.85379,3.58583 0.41698,1.03509 0.51459,2.1426 0.68139,3.23336 0.0495,1.15798 -0.41861,1.41634 -1.70697,1.8316 -0.10878,0.0351 -0.45762,-0.49037 -0.47182,-0.50972 -0.4485,-0.88077 -0.54543,-1.86801 -0.61309,-2.83845 -0.0735,-1.04038 -0.0506,-2.07574 0.0647,-3.11104 0.2857,-1.37846 0.98687,-2.59557 1.8536,-3.68623 0.98433,-0.97775 2.27693,-1.93676 3.71145,-1.95098 0.79686,0.17661 0.82341,0.9716 0.96653,1.63955 0.20022,0.83497 0.29178,1.68697 0.33109,2.54284 0.19472,1.20154 0.63443,2.33974 1.08142,3.46553 0.35539,0.76 0.83909,1.44528 1.22451,2.18917 0,0 -1.28804,0.73468 -1.28804,0.73468 v 0 c -0.3774,-0.75373 -0.86481,-1.44158 -1.22541,-2.20451 -0.45264,-1.1402 -0.89634,-2.29159 -1.11222,-3.50444 -0.0424,-0.84714 -0.12274,-1.69244 -0.32308,-2.51904 -0.13083,-0.58981 -0.11587,-1.36343 -0.85854,-1.46159 -0.36591,0.0273 -0.35948,0.006 -0.7333,0.13008 -0.13674,0.0454 -0.51462,0.24914 -0.40167,0.15968 0.25967,-0.20571 0.55385,-0.36654 0.85006,-0.51488 0.33507,-0.16779 -1.35627,0.85104 -0.8669,0.71577 -0.87849,1.05916 -1.57422,2.25342 -1.88337,3.60722 -0.11596,1.02734 -0.14421,2.05262 -0.0735,3.08574 0.0615,0.94124 0.14436,1.90444 0.579,2.75915 0.52359,0.6781 0.83324,0.1881 -0.70946,1.09154 -0.0746,0.0437 0.14307,-0.10615 0.18511,-0.1817 0.13957,-0.25084 0.10517,-0.50304 0.11125,-0.77748 -0.1719,-1.08193 -0.25456,-2.18426 -0.66746,-3.2132 -0.38646,-1.17066 -0.81278,-2.37121 -0.87602,-3.6088 -0.0983,-0.90705 -0.31364,-1.73701 -0.98814,-2.39993 -0.71024,-0.64244 -1.59234,-1.41357 -2.61286,-1.23086 0.2863,-0.1895 0.57281,-0.37868 0.85889,-0.56851 0.13156,-0.0873 -0.2727,0.16146 -0.39532,0.2609 -0.51679,0.4191 -0.85982,1.01998 -1.28645,1.52005 -0.66177,0.86695 -1.40949,1.68467 -1.82941,2.70841 -0.39694,1.0222 -0.37073,2.07183 -0.34245,3.15648 -0.001,1.14817 -0.005,2.2968 0.0327,3.44448 0.0178,0.35664 0.0268,0.66185 0.0671,1.01515 0.0131,0.11432 0.0274,0.22893 0.0532,0.34105 0.0133,0.0577 0.10876,0.12745 0.0637,0.16583 -0.37123,0.316 -0.79044,0.57449 -1.21497,0.81416 -0.0496,0.028 0.0386,-0.1073 0.058,-0.16095 0.0161,-1.25162 0.008,-2.50336 0.007,-3.75504 -0.002,-1.21716 -5.3e-4,-2.43433 8e-4,-3.6515 6e-5,-1.2272 0.004,-2.45446 -0.01,-3.68162 0,0 1.3336,-0.6795 1.3336,-0.6795 z"
       inkscape:connector-curvature="0" />
    <path
       style="fill:#800000;fill-opacity:0.95959598;stroke:#000000;stroke-width:0.26458332;stroke-opacity:1"
       id="path4541"
       d="m 167.01545,224.01851 c 0.16492,1.11571 0.25257,2.22883 0.1838,3.35465 -0.0794,1.27714 -0.22294,2.54643 -0.37335,3.81675 -0.1691,1.27988 -0.14817,2.57394 -0.26709,3.85694 -0.0847,1.18135 -0.37216,2.33008 -0.53116,3.50089 -0.0269,1.26222 -0.32117,2.47335 -0.58362,3.69938 -0.22907,1.06141 -0.30534,2.14545 -0.34759,3.22775 -0.0389,1.07008 -0.0486,2.13476 0.0827,3.19815 0.12852,1.22425 0.25826,2.45706 0.20939,3.68894 -0.11244,0.61251 -0.009,0.33896 -0.28312,0.83054 0,0 -1.36431,0.59973 -1.36431,0.59973 v 0 c 0.31682,-0.42832 0.19579,-0.17924 0.32523,-0.76447 0.068,-1.22335 -0.0682,-2.44955 -0.20031,-3.66514 -0.13325,-1.07027 -0.13307,-2.14161 -0.0938,-3.21912 0.0376,-1.09058 0.11654,-2.18325 0.34159,-3.25338 0.25946,-1.22339 0.57497,-2.42833 0.58945,-3.68921 0.14897,-1.17141 0.44274,-2.31589 0.5319,-3.49561 0.12941,-1.28366 0.10346,-2.58008 0.2696,-3.86192 0.15326,-1.2669 0.29107,-2.53273 0.37073,-3.80661 0.0784,-1.11477 0.003,-2.21793 -0.18143,-3.32116 0,0 1.32143,-0.6971 1.32143,-0.6971 z"
       inkscape:connector-curvature="0" />
    <path
       style="fill:#800000;fill-opacity:0.95959598;stroke:#000000;stroke-width:0.26458332;stroke-opacity:1"
       id="path4543"
       d="m 167.18624,223.98867 c 1.04963,0.0286 2.10288,-0.0469 3.14875,0.0545 1.04254,0.15603 2.06451,0.41575 3.10889,0.56739 0.76893,0.12628 1.25143,0.59372 1.55858,1.28095 0.2197,0.50531 0.16958,1.06886 0.30295,1.59263 0.0655,0.25729 0.26408,0.74289 0.35843,0.98469 0.40232,0.94176 0.63208,1.67443 0.16619,2.62892 -0.76927,1.1318 -2.11065,1.74855 -3.3832,2.16552 -0.85136,0.36349 -1.68062,0.71405 -2.5926,0.89257 -0.61072,0.10831 -1.23057,0.12999 -1.84883,0.15155 0,0 1.19819,-0.87755 1.19819,-0.87755 v 0 c 0.61408,-0.0255 1.22972,-0.0545 1.83478,-0.17167 0.90273,-0.19565 1.72561,-0.56971 2.58133,-0.90754 0.45839,-0.16333 1.87989,-0.87774 -0.0226,0.17382 -0.1155,0.0638 0.22653,-0.13681 0.33012,-0.21858 0.28459,-0.22464 0.32434,-0.31243 0.54363,-0.59693 0.5208,-0.9085 0.28835,-1.59509 -0.10116,-2.51859 -0.0813,-0.20612 -0.31899,-0.79167 -0.37749,-1.00915 -0.13734,-0.51057 -0.0832,-1.06127 -0.29031,-1.557 -0.28719,-0.65034 -0.74944,-1.05237 -1.472,-1.15893 -1.0398,-0.16059 -2.05962,-0.42377 -3.1025,-0.56091 -1.04806,-0.0835 -2.10149,-0.0249 -3.15207,-0.0359 0,0 1.21088,-0.87976 1.21088,-0.87976 z"
       inkscape:connector-curvature="0" />
  </g>
</svg>
